<svg width="1240" height="1240" viewBox="0 0 1240 1240" xmlns="http://www.w3.org/2000/svg">
  <path d="
    M 100 230
    L 290 230
    Q 320 230 330 260
    L 425 660
    L 545 280
    Q 555 230 615 230
    L 625 230
    Q 685 230 695 280
    L 815 660
    L 910 260
    Q 920 230 950 230
    L 1140 230
    Q 1170 230 1155 270
    L 950 1000
    Q 935 1030 905 1030
    L 765 1030
    Q 735 1030 725 1000
    L 620 660
    L 515 1000
    Q 505 1030 475 1030
    L 335 1030
    Q 305 1030 295 1000
    L 90 270
    Q 75 230 100 230
    Z
  " fill="#1257f0"/>
</svg>
